<mxfile host="app.diagrams.net" modified="2022-06-08T11:02:42.279Z" agent="5.0 (Windows NT 10.0; Win64; x64) AppleWebKit/537.36 (KHTML, like Gecko) Chrome/102.0.0.0 Safari/537.36" etag="vPhx2c9p2aYkZcYjNdTj" version="19.0.0" type="github">
  <diagram id="ONz-OHA8eFzedGGT5cgi" name="第 1 页">
    <mxGraphModel dx="1038" dy="539" grid="0" gridSize="10" guides="1" tooltips="1" connect="1" arrows="1" fold="1" page="1" pageScale="1" pageWidth="827" pageHeight="1169" math="0" shadow="0">
      <root>
        <mxCell id="0" />
        <mxCell id="1" parent="0" />
        <mxCell id="roUVFwpYnobQ3e0gB2Z3-1" style="edgeStyle=orthogonalEdgeStyle;rounded=0;orthogonalLoop=1;jettySize=auto;html=1;entryX=0.5;entryY=0;entryDx=0;entryDy=0;" edge="1" parent="1" target="roUVFwpYnobQ3e0gB2Z3-3">
          <mxGeometry relative="1" as="geometry">
            <mxPoint x="360.05882352941194" y="62" as="sourcePoint" />
          </mxGeometry>
        </mxCell>
        <mxCell id="roUVFwpYnobQ3e0gB2Z3-2" style="edgeStyle=orthogonalEdgeStyle;rounded=0;orthogonalLoop=1;jettySize=auto;html=1;entryX=0.5;entryY=0;entryDx=0;entryDy=0;entryPerimeter=0;" edge="1" parent="1" source="roUVFwpYnobQ3e0gB2Z3-3" target="roUVFwpYnobQ3e0gB2Z3-6">
          <mxGeometry relative="1" as="geometry" />
        </mxCell>
        <mxCell id="roUVFwpYnobQ3e0gB2Z3-3" value="用户请求修改邮箱" style="rounded=1;whiteSpace=wrap;html=1;absoluteArcSize=1;arcSize=14;strokeWidth=2;" vertex="1" parent="1">
          <mxGeometry x="310" y="91" width="100" height="32" as="geometry" />
        </mxCell>
        <mxCell id="roUVFwpYnobQ3e0gB2Z3-4" style="edgeStyle=orthogonalEdgeStyle;rounded=0;orthogonalLoop=1;jettySize=auto;html=1;entryX=0;entryY=0.5;entryDx=0;entryDy=0;entryPerimeter=0;" edge="1" parent="1" source="roUVFwpYnobQ3e0gB2Z3-6" target="roUVFwpYnobQ3e0gB2Z3-7">
          <mxGeometry relative="1" as="geometry" />
        </mxCell>
        <mxCell id="roUVFwpYnobQ3e0gB2Z3-5" style="edgeStyle=orthogonalEdgeStyle;rounded=0;orthogonalLoop=1;jettySize=auto;html=1;entryX=0.5;entryY=0;entryDx=0;entryDy=0;" edge="1" parent="1" source="roUVFwpYnobQ3e0gB2Z3-6">
          <mxGeometry relative="1" as="geometry">
            <mxPoint x="360" y="251" as="targetPoint" />
          </mxGeometry>
        </mxCell>
        <mxCell id="roUVFwpYnobQ3e0gB2Z3-6" value="jwt是否有效" style="strokeWidth=2;html=1;shape=mxgraph.flowchart.decision;whiteSpace=wrap;" vertex="1" parent="1">
          <mxGeometry x="310" y="156" width="100" height="62" as="geometry" />
        </mxCell>
        <mxCell id="roUVFwpYnobQ3e0gB2Z3-7" value="结束" style="strokeWidth=2;html=1;shape=mxgraph.flowchart.terminator;whiteSpace=wrap;" vertex="1" parent="1">
          <mxGeometry x="480" y="168.5" width="64" height="37" as="geometry" />
        </mxCell>
        <mxCell id="roUVFwpYnobQ3e0gB2Z3-8" value="否" style="text;html=1;align=center;verticalAlign=middle;resizable=0;points=[];autosize=1;strokeColor=none;fillColor=none;" vertex="1" parent="1">
          <mxGeometry x="429" y="166" width="22" height="18" as="geometry" />
        </mxCell>
        <mxCell id="roUVFwpYnobQ3e0gB2Z3-9" style="edgeStyle=orthogonalEdgeStyle;rounded=0;orthogonalLoop=1;jettySize=auto;html=1;entryX=0;entryY=0.5;entryDx=0;entryDy=0;entryPerimeter=0;" edge="1" parent="1" source="roUVFwpYnobQ3e0gB2Z3-10" target="roUVFwpYnobQ3e0gB2Z3-11">
          <mxGeometry relative="1" as="geometry" />
        </mxCell>
        <mxCell id="roUVFwpYnobQ3e0gB2Z3-10" value="将结果返回前端" style="rounded=1;whiteSpace=wrap;html=1;absoluteArcSize=1;arcSize=14;strokeWidth=2;" vertex="1" parent="1">
          <mxGeometry x="310" y="466" width="100" height="32" as="geometry" />
        </mxCell>
        <mxCell id="roUVFwpYnobQ3e0gB2Z3-11" value="结束" style="strokeWidth=2;html=1;shape=mxgraph.flowchart.terminator;whiteSpace=wrap;" vertex="1" parent="1">
          <mxGeometry x="480" y="463.5" width="64" height="37" as="geometry" />
        </mxCell>
        <mxCell id="roUVFwpYnobQ3e0gB2Z3-12" value="是" style="text;html=1;align=center;verticalAlign=middle;resizable=0;points=[];autosize=1;strokeColor=none;fillColor=none;" vertex="1" parent="1">
          <mxGeometry x="358" y="220" width="22" height="18" as="geometry" />
        </mxCell>
        <mxCell id="roUVFwpYnobQ3e0gB2Z3-13" style="edgeStyle=orthogonalEdgeStyle;rounded=0;orthogonalLoop=1;jettySize=auto;html=1;entryX=0;entryY=0.5;entryDx=0;entryDy=0;entryPerimeter=0;" edge="1" parent="1" source="roUVFwpYnobQ3e0gB2Z3-15" target="roUVFwpYnobQ3e0gB2Z3-16">
          <mxGeometry relative="1" as="geometry" />
        </mxCell>
        <mxCell id="roUVFwpYnobQ3e0gB2Z3-14" style="edgeStyle=orthogonalEdgeStyle;rounded=0;orthogonalLoop=1;jettySize=auto;html=1;entryX=0.5;entryY=0;entryDx=0;entryDy=0;" edge="1" parent="1" source="roUVFwpYnobQ3e0gB2Z3-15" target="roUVFwpYnobQ3e0gB2Z3-19">
          <mxGeometry relative="1" as="geometry" />
        </mxCell>
        <mxCell id="roUVFwpYnobQ3e0gB2Z3-15" value="邮箱验证码是否正确" style="strokeWidth=2;html=1;shape=mxgraph.flowchart.decision;whiteSpace=wrap;" vertex="1" parent="1">
          <mxGeometry x="284" y="254" width="152" height="59" as="geometry" />
        </mxCell>
        <mxCell id="roUVFwpYnobQ3e0gB2Z3-16" value="结束" style="strokeWidth=2;html=1;shape=mxgraph.flowchart.terminator;whiteSpace=wrap;" vertex="1" parent="1">
          <mxGeometry x="480" y="265" width="64" height="37" as="geometry" />
        </mxCell>
        <mxCell id="roUVFwpYnobQ3e0gB2Z3-17" value="否" style="text;html=1;align=center;verticalAlign=middle;resizable=0;points=[];autosize=1;strokeColor=none;fillColor=none;" vertex="1" parent="1">
          <mxGeometry x="429" y="265" width="22" height="18" as="geometry" />
        </mxCell>
        <mxCell id="roUVFwpYnobQ3e0gB2Z3-23" style="edgeStyle=orthogonalEdgeStyle;rounded=0;orthogonalLoop=1;jettySize=auto;html=1;entryX=0.5;entryY=0;entryDx=0;entryDy=0;" edge="1" parent="1" source="roUVFwpYnobQ3e0gB2Z3-19" target="roUVFwpYnobQ3e0gB2Z3-22">
          <mxGeometry relative="1" as="geometry" />
        </mxCell>
        <mxCell id="roUVFwpYnobQ3e0gB2Z3-19" value="将新邮箱写入数据库" style="rounded=1;whiteSpace=wrap;html=1;absoluteArcSize=1;arcSize=14;strokeWidth=2;" vertex="1" parent="1">
          <mxGeometry x="310" y="343" width="100" height="32" as="geometry" />
        </mxCell>
        <mxCell id="roUVFwpYnobQ3e0gB2Z3-20" value="是" style="text;html=1;align=center;verticalAlign=middle;resizable=0;points=[];autosize=1;strokeColor=none;fillColor=none;" vertex="1" parent="1">
          <mxGeometry x="358" y="316" width="22" height="18" as="geometry" />
        </mxCell>
        <mxCell id="roUVFwpYnobQ3e0gB2Z3-21" value="开始" style="strokeWidth=2;html=1;shape=mxgraph.flowchart.terminator;whiteSpace=wrap;" vertex="1" parent="1">
          <mxGeometry x="328" y="25" width="64" height="37" as="geometry" />
        </mxCell>
        <mxCell id="roUVFwpYnobQ3e0gB2Z3-24" style="edgeStyle=orthogonalEdgeStyle;rounded=0;orthogonalLoop=1;jettySize=auto;html=1;entryX=0.5;entryY=0;entryDx=0;entryDy=0;" edge="1" parent="1" source="roUVFwpYnobQ3e0gB2Z3-22" target="roUVFwpYnobQ3e0gB2Z3-10">
          <mxGeometry relative="1" as="geometry" />
        </mxCell>
        <mxCell id="roUVFwpYnobQ3e0gB2Z3-22" value="从Redis删除当前账户所有会话信息" style="rounded=1;whiteSpace=wrap;html=1;absoluteArcSize=1;arcSize=14;strokeWidth=2;" vertex="1" parent="1">
          <mxGeometry x="310" y="402" width="100" height="32" as="geometry" />
        </mxCell>
      </root>
    </mxGraphModel>
  </diagram>
</mxfile>
